<?xml version="1.0" standalone="no"?>
<!DOCTYPE svg PUBLIC "-//W3C//DTD SVG 20010904//EN"
 "http://www.w3.org/TR/2001/REC-SVG-20010904/DTD/svg10.dtd">
<svg version="1.0" xmlns="http://www.w3.org/2000/svg"
 width="280.000000pt" height="280.000000pt" viewBox="0 0 280.000000 280.000000"
 preserveAspectRatio="xMidYMid meet">
<metadata>
Created by potrace 1.11, written by Peter Selinger 2001-2013
</metadata>
<g transform="translate(0.000000,280.000000) scale(0.100000,-0.100000)"
fill="#000000" stroke="none">
<path d="M877 2758 c-93 -117 -182 -282 -232 -432 -38 -112 -85 -331 -106
-495 -12 -89 -14 -94 -41 -103 -15 -5 -37 -25 -49 -44 -11 -19 -25 -34 -30
-34 -5 0 -16 -15 -25 -33 -9 -19 -28 -38 -44 -44 -22 -8 -30 -19 -34 -44 -39
-236 -49 -291 -61 -336 -11 -35 -22 -54 -36 -58 -25 -8 -40 -43 -74 -165 -24
-89 -30 -99 -85 -155 l-60 -61 0 -377 0 -377 238 0 239 0 10 33 c6 17 43 121
82 231 50 139 71 213 71 246 0 25 -16 104 -35 175 l-35 128 27 83 c15 46 30
84 33 84 3 0 28 -35 55 -77 50 -78 237 -275 348 -367 l58 -48 -58 -30 c-81
-41 -189 -151 -284 -290 l-80 -118 -53 0 c-43 0 -57 -4 -76 -25 l-23 -25 1141
0 1142 0 0 318 0 318 -61 20 -62 19 -1 44 c-1 44 -1 44 61 78 l63 35 0 984 0
984 -944 0 -945 0 -34 -42z"/>
</g>
</svg>
